<svg width="24" height="24" viewBox="0 0 24 24" fill="none" xmlns="http://www.w3.org/2000/svg">
<path d="M12.0608 19.4028C15.682 19.4028 18.6177 16.4672 18.6177 12.8459C18.6177 9.22468 15.682 6.28906 12.0608 6.28906C8.43953 6.28906 5.50391 9.22468 5.50391 12.8459C5.50391 16.4672 8.43953 19.4028 12.0608 19.4028Z" fill="#34AADF"/>
<path d="M8.31351 12.7023C8.31351 12.7023 11.5615 11.3205 12.6879 10.8339C13.1197 10.6393 14.5841 10.0165 14.5841 10.0165C14.5841 10.0165 15.26 9.74405 15.2037 10.4057C15.1849 10.6782 15.0347 11.6318 14.8845 12.6633C14.6592 14.123 14.4151 15.7189 14.4151 15.7189C14.4151 15.7189 14.3776 16.1665 14.0584 16.2443C13.7393 16.3222 13.2136 15.9719 13.1197 15.894C13.0446 15.8356 11.7116 14.9598 11.2235 14.5317C11.0921 14.4149 10.9419 14.1814 11.2423 13.9089C11.9182 13.2667 12.7254 12.4687 13.2136 11.9627C13.4389 11.7292 13.6642 11.1842 12.7254 11.8459C11.3925 12.7996 10.0783 13.6948 10.0783 13.6948C10.0783 13.6948 9.77789 13.8894 9.21467 13.7143C8.65143 13.5391 7.99433 13.3056 7.99433 13.3056C7.99433 13.3056 7.54377 13.0137 8.31351 12.7023Z" fill="white"/>
</svg>
