<svg width="36" height="36" viewBox="0 0 36 36" fill="none" xmlns="http://www.w3.org/2000/svg">
<path d="M27.1066 12.2493C26.5122 12.5052 25.8873 12.6833 25.2473 12.7793C25.5465 12.7281 25.9868 12.1895 26.162 11.9715C26.4282 11.6427 26.6311 11.2674 26.7604 10.8645C26.7604 10.8346 26.7903 10.7918 26.7604 10.7705C26.7453 10.7622 26.7284 10.7579 26.7112 10.7579C26.6941 10.7579 26.6772 10.7622 26.6621 10.7705C25.9672 11.1468 25.2276 11.434 24.4609 11.6253C24.4341 11.6335 24.4057 11.6342 24.3786 11.6274C24.3515 11.6207 24.3267 11.6066 24.307 11.5868C24.2473 11.5158 24.1831 11.4487 24.1147 11.386C23.8019 11.1058 23.4471 10.8764 23.0632 10.7064C22.545 10.4937 21.9852 10.4017 21.4262 10.4371C20.8838 10.4713 20.3542 10.6168 19.8704 10.8645C19.394 11.1256 18.9752 11.4804 18.6394 11.9074C18.2861 12.3469 18.0311 12.857 17.8914 13.4034C17.7762 13.9231 17.7632 14.4602 17.8529 14.9848C17.8529 15.0746 17.8529 15.0874 17.776 15.0746C14.7285 14.6258 12.2281 13.5444 10.185 11.2235C10.0953 11.121 10.0482 11.121 9.97559 11.2235C9.08655 12.5742 9.51825 14.7113 10.6295 15.767C10.7791 15.9081 10.933 16.0448 11.0954 16.1731C10.5859 16.1369 10.0888 15.9988 9.63365 15.767C9.54817 15.7115 9.50115 15.7414 9.49687 15.844C9.48476 15.9862 9.48476 16.1292 9.49687 16.2714C9.58606 16.9529 9.85466 17.5986 10.2752 18.1423C10.6958 18.686 11.2532 19.1083 11.8904 19.3659C12.0458 19.4324 12.2077 19.4826 12.3734 19.5155C11.9017 19.6084 11.4179 19.6228 10.9416 19.5582C10.839 19.5369 10.8005 19.5924 10.839 19.6907C11.4673 21.4004 12.8308 21.9219 13.8309 22.2125C13.9677 22.2339 14.1045 22.2339 14.2583 22.2681C14.2583 22.2681 14.2583 22.2681 14.2327 22.2937C13.9378 22.8323 12.7453 23.1956 12.1982 23.3837C11.1996 23.7423 10.1349 23.8794 9.078 23.7854C8.91131 23.7598 8.87284 23.7641 8.8301 23.7854C8.78736 23.8068 8.8301 23.8538 8.87711 23.8966C9.09083 24.0376 9.30454 24.1616 9.52679 24.2812C10.1885 24.6421 10.888 24.9288 11.6126 25.1361C15.3654 26.1704 19.5883 25.4096 22.405 22.61C24.619 20.4131 25.3969 17.3827 25.3969 14.348C25.3969 14.2326 25.538 14.1642 25.6192 14.1044C26.1793 13.6679 26.6732 13.1525 27.0852 12.5742C27.1566 12.488 27.1932 12.3782 27.1878 12.2664C27.1878 12.2023 27.1878 12.2152 27.1066 12.2493Z" fill="#33CCFF"/>
</svg>
