<?xml version="1.0" encoding="UTF-8"?>
<svg xmlns="http://www.w3.org/2000/svg" xmlns:xlink="http://www.w3.org/1999/xlink" viewBox="0 0 24 24" width="24px" height="24px">
<g id="surface58732694">
<path style=" stroke:none;fill-rule:nonzero;fill:rgb(100%,100%,100%);fill-opacity:1;" d="M 0.480469 4.320312 C 0.214844 4.320312 0 4.535156 0 4.800781 L 0 11.574219 C 0 14.53125 2.246094 17.101562 5.199219 17.269531 C 8.03125 17.429688 10.4375 15.445312 10.941406 12.792969 C 11.214844 13.160156 11.496094 13.503906 11.773438 13.820312 L 10.082031 21.011719 C 10.046875 21.152344 10.082031 21.300781 10.171875 21.417969 C 10.261719 21.53125 10.402344 21.601562 10.546875 21.601562 L 13.007812 21.601562 C 13.230469 21.601562 13.421875 21.449219 13.472656 21.234375 C 13.769531 19.976562 14.238281 18.003906 14.660156 16.21875 L 15.097656 16.46875 C 16.136719 17.007812 17.191406 17.28125 18.238281 17.28125 C 21.691406 17.28125 24.445312 14.226562 23.941406 10.679688 C 23.605469 8.328125 21.796875 6.394531 19.476562 5.894531 C 16.777344 5.3125 14.171875 6.695312 13.054688 8.996094 C 13.054688 8.996094 12.929688 9.273438 12.828125 9.546875 C 12.035156 8.183594 11.570312 6.765625 11.328125 5.738281 C 11.238281 5.363281 11.105469 4.6875 11.089844 4.640625 C 11.023438 4.449219 10.84375 4.320312 10.636719 4.320312 L 8.160156 4.320312 C 7.894531 4.320312 7.679688 4.535156 7.679688 4.800781 L 7.679688 11.664062 C 7.679688 12.792969 6.859375 13.800781 5.734375 13.910156 C 4.449219 14.035156 3.359375 13.023438 3.359375 11.761719 L 3.359375 4.800781 C 3.359375 4.535156 3.144531 4.320312 2.878906 4.320312 Z M 18.238281 9.121094 C 19.5625 9.121094 20.640625 10.195312 20.640625 11.519531 C 20.640625 12.84375 19.5625 13.921875 18.238281 13.921875 C 17.171875 13.921875 16.183594 13.277344 15.488281 12.714844 C 15.742188 11.644531 15.914062 10.929688 15.914062 10.917969 C 16.1875 9.859375 17.144531 9.121094 18.238281 9.121094 Z M 18.238281 9.121094 "/>
</g>
</svg>
